%TF.GenerationSoftware,Altium Limited,Altium Designer,19.1.8 (144)*%
G04 Layer_Physical_Order=1*
G04 Layer_Color=255*
%FSLAX25Y25*%
%MOIN*%
%TF.FileFunction,Copper,L1,Top,Signal*%
%TF.Part,Single*%
G01*
G75*
%TA.AperFunction,SMDPad,CuDef*%
%ADD10R,0.04166X0.04749*%
%ADD11R,0.04749X0.04166*%
%ADD12O,0.01181X0.08268*%
%ADD13O,0.08268X0.01181*%
%ADD14R,0.03740X0.10236*%
%ADD15R,0.01968X0.01102*%
%ADD16R,0.03543X0.06299*%
%ADD17R,0.13000X0.09500*%
%ADD18R,0.06693X0.03150*%
%ADD19R,0.04921X0.06102*%
%ADD20R,0.06127X0.05924*%
%ADD21R,0.04724X0.04724*%
%ADD22R,0.03150X0.03150*%
%ADD23R,0.05924X0.06127*%
%ADD24R,0.10630X0.03937*%
%ADD25R,0.08268X0.05512*%
%ADD26R,0.05118X0.05906*%
%ADD27R,0.09843X0.06693*%
%ADD28R,0.11024X0.05709*%
G04:AMPARAMS|DCode=29|XSize=25.59mil|YSize=64.96mil|CornerRadius=1.92mil|HoleSize=0mil|Usage=FLASHONLY|Rotation=90.000|XOffset=0mil|YOffset=0mil|HoleType=Round|Shape=RoundedRectangle|*
%AMROUNDEDRECTD29*
21,1,0.02559,0.06112,0,0,90.0*
21,1,0.02175,0.06496,0,0,90.0*
1,1,0.00384,0.03056,0.01088*
1,1,0.00384,0.03056,-0.01088*
1,1,0.00384,-0.03056,-0.01088*
1,1,0.00384,-0.03056,0.01088*
%
%ADD29ROUNDEDRECTD29*%
%ADD30R,0.04331X0.06496*%
%TA.AperFunction,Conductor*%
%ADD31C,0.01000*%
%ADD32C,0.01500*%
%ADD33C,0.01968*%
%ADD34C,0.03937*%
%TA.AperFunction,ComponentPad*%
%ADD35C,0.09646*%
%ADD36R,0.09646X0.09646*%
%TA.AperFunction,ViaPad*%
%ADD37C,0.06000*%
%TA.AperFunction,ComponentPad*%
%ADD38R,0.05906X0.05906*%
%ADD39C,0.05906*%
%ADD40C,0.06102*%
%ADD41R,0.06102X0.06102*%
%ADD42R,0.05906X0.05906*%
%ADD43C,0.07087*%
%TA.AperFunction,ViaPad*%
%ADD44C,0.05000*%
%ADD45C,0.01968*%
%ADD46C,0.07087*%
D10*
X208071Y69780D02*
D03*
Y76283D02*
D03*
X193504Y89169D02*
D03*
Y95673D02*
D03*
X100197Y56795D02*
D03*
Y50291D02*
D03*
X268208Y25878D02*
D03*
Y32382D02*
D03*
X55511Y202272D02*
D03*
Y195768D02*
D03*
D11*
X95961Y112106D02*
D03*
X102464D02*
D03*
X196657Y73327D02*
D03*
X190154D02*
D03*
X161414Y122277D02*
D03*
X167917D02*
D03*
X159346Y38091D02*
D03*
X165850D02*
D03*
X130319Y142028D02*
D03*
X123815D02*
D03*
X205511Y108465D02*
D03*
X199008D02*
D03*
D12*
X169980Y50787D02*
D03*
X168011D02*
D03*
X166043D02*
D03*
X164075D02*
D03*
X162106D02*
D03*
X160137D02*
D03*
X158169D02*
D03*
X156201D02*
D03*
X154232D02*
D03*
X152263D02*
D03*
X150295D02*
D03*
X148327D02*
D03*
X146358D02*
D03*
X144389D02*
D03*
X142421D02*
D03*
X140453D02*
D03*
X138484D02*
D03*
X136515D02*
D03*
X134547D02*
D03*
X132579D02*
D03*
X130610D02*
D03*
X128641D02*
D03*
X126673D02*
D03*
X124705D02*
D03*
X122736D02*
D03*
Y110630D02*
D03*
X124705D02*
D03*
X126673D02*
D03*
X128641D02*
D03*
X130610D02*
D03*
X132579D02*
D03*
X134547D02*
D03*
X136515D02*
D03*
X138484D02*
D03*
X140453D02*
D03*
X142421D02*
D03*
X144389D02*
D03*
X146358D02*
D03*
X148327D02*
D03*
X150295D02*
D03*
X152263D02*
D03*
X154232D02*
D03*
X156201D02*
D03*
X158169D02*
D03*
X160137D02*
D03*
X162106D02*
D03*
X164075D02*
D03*
X166043D02*
D03*
X168011D02*
D03*
X169980D02*
D03*
D13*
X116437Y57086D02*
D03*
Y59055D02*
D03*
Y61023D02*
D03*
Y62992D02*
D03*
Y64960D02*
D03*
Y66929D02*
D03*
Y68897D02*
D03*
Y70866D02*
D03*
Y72834D02*
D03*
Y74803D02*
D03*
Y76771D02*
D03*
Y78740D02*
D03*
Y80709D02*
D03*
Y82677D02*
D03*
Y84646D02*
D03*
Y86614D02*
D03*
Y88583D02*
D03*
Y90551D02*
D03*
Y92520D02*
D03*
Y94488D02*
D03*
Y96457D02*
D03*
Y98425D02*
D03*
Y100394D02*
D03*
Y102362D02*
D03*
Y104331D02*
D03*
X176279D02*
D03*
Y102362D02*
D03*
Y100394D02*
D03*
Y98425D02*
D03*
Y96457D02*
D03*
Y94488D02*
D03*
Y92520D02*
D03*
Y90551D02*
D03*
Y88583D02*
D03*
Y86614D02*
D03*
Y84646D02*
D03*
Y82677D02*
D03*
Y80709D02*
D03*
Y78740D02*
D03*
Y76771D02*
D03*
Y74803D02*
D03*
Y72834D02*
D03*
Y70866D02*
D03*
Y68897D02*
D03*
Y66929D02*
D03*
Y64960D02*
D03*
Y62992D02*
D03*
Y61023D02*
D03*
Y59055D02*
D03*
Y57086D02*
D03*
D14*
X245965Y75689D02*
D03*
X256988D02*
D03*
X238583Y120079D02*
D03*
X249606D02*
D03*
D15*
X234153Y97835D02*
D03*
Y95866D02*
D03*
Y93898D02*
D03*
Y91929D02*
D03*
X241633D02*
D03*
Y93898D02*
D03*
Y95866D02*
D03*
Y97835D02*
D03*
D16*
X237893Y94882D02*
D03*
D17*
X335544Y25595D02*
D03*
Y106295D02*
D03*
D18*
X315945Y39370D02*
D03*
Y45275D02*
D03*
Y51181D02*
D03*
Y57086D02*
D03*
Y62992D02*
D03*
Y68898D02*
D03*
Y74803D02*
D03*
Y80709D02*
D03*
Y86614D02*
D03*
Y92520D02*
D03*
D19*
X67716Y97441D02*
D03*
X59645D02*
D03*
X66535Y120965D02*
D03*
X58464D02*
D03*
X59744Y74311D02*
D03*
X67815D02*
D03*
D20*
X88484Y62103D02*
D03*
Y69196D02*
D03*
D21*
X34940Y74508D02*
D03*
X43208D02*
D03*
X34940Y97441D02*
D03*
X43208D02*
D03*
D22*
X34251Y121063D02*
D03*
X40157D02*
D03*
D23*
X150199Y131791D02*
D03*
X143107D02*
D03*
D24*
X261220Y90650D02*
D03*
Y99311D02*
D03*
D25*
X54133Y167815D02*
D03*
Y150099D02*
D03*
X18307D02*
D03*
Y167815D02*
D03*
D26*
X249212Y32480D02*
D03*
X241732D02*
D03*
D27*
X223622Y160335D02*
D03*
X207874D02*
D03*
D28*
X118405Y201181D02*
D03*
Y189173D02*
D03*
D29*
X96555Y192106D02*
D03*
Y197106D02*
D03*
Y202106D02*
D03*
Y207106D02*
D03*
X74311Y192106D02*
D03*
Y197106D02*
D03*
Y202106D02*
D03*
Y207106D02*
D03*
D30*
X90452Y232480D02*
D03*
X79232D02*
D03*
D31*
X88090Y59090D02*
X116402D01*
X33563Y120965D02*
X41830Y129232D01*
X54724Y202658D02*
X73760D01*
X315157Y51575D02*
X315945Y50788D01*
X306200Y60925D02*
X306299Y61023D01*
X305511Y60236D02*
X306200Y60925D01*
X184055Y60236D02*
X305511D01*
X168011Y122183D02*
X168155Y122039D01*
X314271Y50689D02*
X315157Y51575D01*
X168155Y122039D02*
X187618D01*
X315945Y45275D02*
Y50788D01*
X133264Y151476D02*
X174311D01*
X166248Y38091D02*
Y38197D01*
Y33579D02*
Y38091D01*
X98228Y45965D02*
X109350Y57086D01*
X113681Y32090D02*
X128933D01*
X194685Y106890D02*
X197244D01*
X199008Y93397D02*
Y108465D01*
X184252Y96457D02*
X194685Y106890D01*
X176279Y96457D02*
X184252D01*
X193405Y108465D02*
X198716D01*
X183366Y98425D02*
X193405Y108465D01*
X176279Y98425D02*
X183366D01*
X278051Y62303D02*
X296850Y81102D01*
X185827Y62303D02*
X278051D01*
X185228Y62902D02*
X185827Y62303D01*
X176370Y62902D02*
X185228D01*
X176279Y62992D02*
X176370Y62902D01*
X183268Y61023D02*
X184055Y60236D01*
X176279Y61023D02*
X183268D01*
X306299D02*
X306398D01*
X177756Y55610D02*
X314468D01*
X301279Y51083D02*
X312500D01*
X182874Y57874D02*
X309055D01*
X181783Y58965D02*
X182874Y57874D01*
X176370Y58965D02*
X181783D01*
X176279Y59055D02*
X176370Y58965D01*
X309055Y57874D02*
X314173Y62992D01*
X314468Y55610D02*
X315945Y57086D01*
X176279Y57086D02*
X177756Y55610D01*
X41830Y129232D02*
X71850D01*
X88976Y112106D01*
X95961D01*
X90452Y96457D02*
X116437D01*
X66535Y120374D02*
X90452Y96457D01*
X111319Y50787D02*
X122736D01*
X94587Y34055D02*
X111319Y50787D01*
X37480Y34055D02*
X94587D01*
X164665Y31996D02*
X164763Y31898D01*
X167831Y39674D02*
X169980Y41822D01*
X167725Y39674D02*
X167831D01*
X166248Y38197D02*
X167725Y39674D01*
X169980Y41822D02*
Y50787D01*
X166248Y38091D02*
X171161D01*
X174114Y41043D01*
Y52854D01*
X169980Y56988D02*
X174114Y52854D01*
X169980Y56988D02*
Y64861D01*
X196657Y73327D02*
Y86016D01*
Y73327D02*
X196949D01*
X196366D02*
X196657D01*
X198532Y71161D02*
X199913Y69780D01*
X198532Y71161D02*
Y71744D01*
X196949Y73327D02*
X198532Y71744D01*
X199913Y69780D02*
X208071D01*
X182480Y67520D02*
X205811D01*
X206196Y67905D01*
X206488D01*
X208071Y69488D01*
Y69780D01*
X181890Y66929D02*
X182480Y67520D01*
X176279Y66929D02*
X181890D01*
X195378Y87295D02*
X196657Y86016D01*
X195087Y87295D02*
X195378D01*
X193504Y88878D02*
X195087Y87295D01*
X193504Y88878D02*
Y89169D01*
X186122Y78543D02*
X191441D01*
X194783Y75201D01*
Y74910D02*
Y75201D01*
Y74910D02*
X196366Y73327D01*
X184350Y76771D02*
X186122Y78543D01*
X176279Y76771D02*
X184350D01*
X196654Y91044D02*
X199008Y93397D01*
X195087Y91044D02*
X196654D01*
X193504Y89461D02*
X195087Y91044D01*
X193504Y89169D02*
Y89461D01*
X186713Y163878D02*
X222047Y199213D01*
X174311Y151476D02*
X186713Y163878D01*
X211811Y121268D02*
Y143898D01*
X200882Y110339D02*
X211811Y121268D01*
X200882Y110048D02*
Y110339D01*
X199299Y108465D02*
X200882Y110048D01*
X199008Y108465D02*
X199299D01*
X191831Y163878D02*
X211811Y143898D01*
X186713Y163878D02*
X191831D01*
X186126Y89169D02*
X193504D01*
X182775Y92520D02*
X186126Y89169D01*
X176279Y92520D02*
X182775D01*
X190131Y96161D02*
X191043D01*
X188458Y94488D02*
X190131Y96161D01*
X176279Y94488D02*
X188458D01*
X190310Y112101D02*
X201968Y123760D01*
X190310Y108518D02*
Y112101D01*
X182220Y100428D02*
X190310Y108518D01*
X176314Y100428D02*
X182220D01*
X123815Y142028D02*
X133264Y151476D01*
X222047Y199213D02*
X244193D01*
X270276Y173130D01*
Y81201D02*
Y173130D01*
X264764Y75689D02*
X270276Y81201D01*
X256988Y75689D02*
X264764D01*
X315944Y86614D02*
X315945Y86614D01*
X276673Y86614D02*
X315944D01*
X158563Y131791D02*
X158563Y131791D01*
X164173D01*
X167917Y128047D01*
Y122277D02*
Y128047D01*
X162216Y119280D02*
X166043Y115453D01*
X162216Y119280D02*
Y121474D01*
X161414Y122277D02*
X162216Y121474D01*
X166043Y110630D02*
Y115453D01*
X167917Y122277D02*
X168011Y122183D01*
Y110630D02*
Y122183D01*
X157381Y40059D02*
X159252D01*
X161811Y42618D01*
X164073D01*
X167977Y46522D01*
X241633Y93898D02*
X254626D01*
X48484Y45965D02*
X98228D01*
X44842Y49606D02*
X48484Y45965D01*
X109350Y57086D02*
X116437D01*
X88484Y69196D02*
X95548D01*
X96161Y77559D02*
X110728Y62992D01*
X81102Y77559D02*
X96161D01*
X68897Y65354D02*
X81102Y77559D01*
X74901Y154035D02*
X75098D01*
X74311Y154626D02*
X74901Y154035D01*
X42519Y184055D02*
X53740Y172835D01*
X62500D01*
X55511Y189075D02*
Y195768D01*
Y189075D02*
X69291Y175295D01*
Y151575D02*
Y175295D01*
Y151575D02*
X72342Y148524D01*
X115453D01*
X122736Y141241D01*
Y110630D02*
Y141241D01*
X74311Y197106D02*
X76279D01*
X150199Y131791D02*
Y137891D01*
X146063Y142028D02*
X150199Y137891D01*
X130319Y142028D02*
X146063D01*
X261220Y79921D02*
Y90650D01*
X259772Y78473D02*
X261220Y79921D01*
X258358Y78473D02*
X259772D01*
X256988Y77103D02*
X258358Y78473D01*
X256988Y75689D02*
Y77103D01*
X16378Y65040D02*
X32421Y48996D01*
Y38996D02*
X37303Y43878D01*
Y55413D01*
X47244Y65354D02*
X68897D01*
X37303Y55413D02*
X47244Y65354D01*
X32421Y28996D02*
X37480Y34055D01*
X32421Y18996D02*
X37539Y24114D01*
X180708Y206594D02*
X181595D01*
X306299Y61023D02*
X314173Y68898D01*
X315551Y81102D02*
X315945Y80709D01*
X296850Y81102D02*
X315551D01*
X313878Y92618D02*
X314960Y91536D01*
X312500Y51083D02*
X313189Y51772D01*
X314271Y50689D01*
X315846Y86516D02*
X315945Y86614D01*
X303248Y92618D02*
X313878D01*
X314960Y91536D02*
X315945Y92520D01*
X301083Y74902D02*
X315649D01*
X315846Y74705D01*
X315944Y74803D01*
X315945Y74803D01*
X271752Y64960D02*
X281299Y74508D01*
X176279Y64960D02*
X271752D01*
X234153Y93898D02*
Y95866D01*
X74311Y154626D02*
Y192106D01*
X73760Y202658D02*
X74311Y202106D01*
X37539Y24114D02*
X93897D01*
X108366Y38583D01*
X42519Y184055D02*
Y201870D01*
X47756Y207106D01*
X74311D01*
X132874Y82776D02*
X132972Y82677D01*
X176279D01*
X150492Y62795D02*
X154888D01*
X162071Y55612D01*
Y50822D02*
Y55612D01*
Y50822D02*
X162106Y50787D01*
X158563Y61648D02*
X164040Y56171D01*
Y50822D02*
Y56171D01*
Y50822D02*
X164075Y50787D01*
X158563Y61648D02*
Y69882D01*
X141633Y62894D02*
X145937Y58590D01*
X156565D01*
X160103Y55053D01*
Y50822D02*
Y55053D01*
Y50822D02*
X160137Y50787D01*
X166043Y66142D02*
X166043Y66142D01*
X166043Y50787D02*
Y66142D01*
X116437Y57086D02*
X116471Y57121D01*
X314173Y68898D02*
X315945D01*
X314173Y62992D02*
X315945D01*
X187059Y72441D02*
X187992D01*
X184697Y74803D02*
X187059Y72441D01*
X176279Y74803D02*
X184697D01*
X234102Y95917D02*
X234153Y95866D01*
X124739Y119720D02*
X136811Y131791D01*
X124739Y110665D02*
Y119720D01*
X136811Y131791D02*
X143107D01*
X150199D02*
X158563D01*
X124705Y110630D02*
X124739Y110665D01*
X122771Y106365D02*
Y110595D01*
X122736Y110630D02*
X122771Y110595D01*
X176245Y94523D02*
X176279Y94488D01*
X167977Y46522D02*
Y50753D01*
X168011Y50787D01*
X157381Y40059D02*
X158134Y40812D01*
Y50753D01*
X158169Y50787D01*
X90452Y227732D02*
X93999Y224186D01*
Y207886D02*
Y224186D01*
Y207886D02*
X94778Y207106D01*
X96555D01*
X90452Y227732D02*
Y232480D01*
X122047Y162303D02*
X133661D01*
X113582Y170768D02*
X122047Y162303D01*
X133661D02*
X173749Y202391D01*
Y213554D01*
X118405Y175945D02*
X123582Y170768D01*
X118405Y175945D02*
Y189173D01*
Y201181D02*
X121063D01*
X140395Y220514D01*
X166789D01*
X241633Y95866D02*
X254429D01*
X257874Y99311D01*
X254626Y93898D02*
X257874Y90650D01*
X172014Y66895D02*
X176245D01*
X55511Y195768D02*
X56850Y197106D01*
X74311D01*
X96555Y202106D02*
X117480D01*
X118405Y201181D01*
X113582Y170768D02*
Y182047D01*
X98523Y197106D02*
X113582Y182047D01*
X96555Y197106D02*
X98523D01*
X257874Y90650D02*
X261220D01*
X257874Y99311D02*
X261220D01*
X237893Y96457D02*
X239220Y97783D01*
X241582D01*
X241633Y97835D01*
X236567Y97783D02*
X237893Y96457D01*
X234204Y97783D02*
X236567D01*
X234153Y97835D02*
X234204Y97783D01*
X237893Y93307D02*
X239220Y91980D01*
X241582D01*
X241633Y91929D01*
X236567Y91980D02*
X237893Y93307D01*
X234204Y91980D02*
X236567D01*
X234153Y91929D02*
X234204Y91980D01*
X268208Y32673D02*
X269791Y34256D01*
X268208Y32382D02*
Y32673D01*
X268110Y32480D02*
X268208Y32382D01*
X249212Y32480D02*
X268110D01*
X241149Y31898D02*
X241732Y32480D01*
X241633Y91929D02*
Y92059D01*
X141433Y133465D02*
X143107Y131791D01*
X116402Y59090D02*
X116437Y59055D01*
X158134Y50822D02*
X158169Y50787D01*
X164665Y31996D02*
X166248Y33579D01*
X169980Y64861D02*
X172014Y66895D01*
X176245D02*
X176279Y66929D01*
X164763Y31898D02*
X241149D01*
X164567Y32094D02*
X164665Y31996D01*
X128945Y32094D02*
X164567D01*
X128937Y32087D02*
X128945Y32094D01*
X128933Y32090D02*
X128937Y32087D01*
X103720Y61023D02*
X116437D01*
X95548Y69196D02*
X103720Y61023D01*
X110728Y62992D02*
X116437D01*
X249008Y32685D02*
X249212Y32480D01*
X187204Y109057D02*
Y114026D01*
X195078Y121900D01*
Y126870D01*
X176279Y100394D02*
X176314Y100428D01*
X176279Y102362D02*
X176314Y102397D01*
X195078Y126870D02*
X201968Y133760D01*
X180544Y102397D02*
X187204Y109057D01*
X176314Y102397D02*
X180544D01*
X18307Y150099D02*
X54133D01*
X16378Y65040D02*
Y148169D01*
X18307Y150099D01*
X108366Y38583D02*
X140352D01*
X148292Y46522D01*
Y50753D01*
X148327Y50787D01*
X58366Y121063D02*
X58464Y120965D01*
X40157Y121063D02*
X58366D01*
X70366Y76862D02*
X82086Y88583D01*
X69775Y76862D02*
X70366D01*
X67815Y74902D02*
X69775Y76862D01*
X67815Y74311D02*
Y74902D01*
X82086Y88583D02*
X116437D01*
X66535Y120374D02*
Y120965D01*
X72637Y92520D02*
X116437D01*
X70267Y94890D02*
X72637Y92520D01*
X69677Y94890D02*
X70267D01*
X67716Y96851D02*
X69677Y94890D01*
X67716Y96851D02*
Y97441D01*
X43208D02*
X59645D01*
X59547Y74508D02*
X59744Y74311D01*
X43208Y74508D02*
X59547D01*
X222047Y160335D02*
X223622D01*
X268110Y25780D02*
X268208Y25878D01*
X54133Y150099D02*
X56311Y147921D01*
X34940Y97441D02*
X35334Y97835D01*
X34645Y97146D02*
X34940Y97441D01*
D32*
X268208Y32382D02*
X275365Y39495D01*
X315945Y39370D01*
X207874Y158957D02*
Y160335D01*
X232532Y95746D02*
X233919D01*
X231632Y96647D02*
X232532Y95746D01*
X231632Y96647D02*
Y106167D01*
D33*
X238583Y120079D02*
Y128248D01*
Y113118D02*
Y120079D01*
X207874Y158957D02*
X238583Y128248D01*
X231632Y106167D02*
X238583Y113118D01*
D34*
X210079Y235079D02*
X231201D01*
X181595Y206594D02*
X210079Y235079D01*
X231201D02*
X244587D01*
X231201Y182047D02*
X244587D01*
X207874Y168110D02*
X221811Y182047D01*
X231201D01*
X207874Y160335D02*
Y168110D01*
D35*
X231201Y182047D02*
D03*
Y235079D02*
D03*
X244587Y182047D02*
D03*
D36*
Y235079D02*
D03*
D37*
X342520Y248031D02*
D03*
X397244Y-226772D02*
D03*
X7874Y248031D02*
D03*
X9843Y8957D02*
D03*
X341240Y9350D02*
D03*
D38*
X202165Y122618D02*
D03*
D39*
Y132618D02*
D03*
Y142618D02*
D03*
X113582Y170768D02*
D03*
D40*
X42421Y38996D02*
D03*
Y28996D02*
D03*
Y18996D02*
D03*
X32421Y48996D02*
D03*
Y38996D02*
D03*
Y28996D02*
D03*
Y18996D02*
D03*
D41*
X42421Y48996D02*
D03*
D42*
X123582Y170768D02*
D03*
D43*
X173749Y213554D02*
D03*
X166789Y220514D02*
D03*
X180708D02*
D03*
X166789Y206594D02*
D03*
X180708D02*
D03*
D44*
X187618Y122039D02*
D03*
X301279Y51083D02*
D03*
X251969Y120079D02*
D03*
X103839Y112598D02*
D03*
X101181Y48228D02*
D03*
X113878Y33366D02*
D03*
X208169Y78740D02*
D03*
X191043Y96161D02*
D03*
X173524Y149606D02*
D03*
X159449Y123327D02*
D03*
X276673Y86614D02*
D03*
X157381Y40059D02*
D03*
X56890Y59646D02*
D03*
X88681D02*
D03*
X75098Y154035D02*
D03*
X62500Y172835D02*
D03*
X243504Y75984D02*
D03*
X303248Y92618D02*
D03*
X301083Y74902D02*
D03*
X281299Y74508D02*
D03*
X54133Y150099D02*
D03*
X132972Y82677D02*
D03*
X141633Y62894D02*
D03*
X150492Y62795D02*
D03*
X166043Y66142D02*
D03*
X158563Y69882D02*
D03*
X187992Y72441D02*
D03*
X268011Y25591D02*
D03*
X223720Y160335D02*
D03*
X78838Y232972D02*
D03*
X54724Y202658D02*
D03*
X53740Y168307D02*
D03*
X18011Y167815D02*
D03*
X33563Y120965D02*
D03*
X34842Y74409D02*
D03*
X205807Y108366D02*
D03*
X180708Y220514D02*
D03*
X34940Y97441D02*
D03*
D45*
X237893Y93307D02*
D03*
Y96457D02*
D03*
D46*
X180708Y206594D02*
D03*
X166789D02*
D03*
X180708Y220514D02*
D03*
X166789D02*
D03*
X173749Y213554D02*
D03*
%TF.MD5,48dcd834a6e895c800b30f368cf0c7d3*%
M02*
