M48
;Layer_Color=9474304
;FILE_FORMAT=2:5
INCH,TZ
;TYPE=PLATED
T1F00S00C0.00787
T2F00S00C0.02800
T3F00S00C0.03543
T4F00S00C0.04094
T5F00S00C0.04724
T6F00S00C0.06299
T7F00S00C0.09449
%
T01
X237893Y93307
Y96457
T02
X34842Y74409
X34940Y97441
X33563Y120965
X103839Y112598
X132972Y82677
X141633Y62894
X101181Y48228
X88681Y59646
X56890
X113878Y33366
X157381Y40059
X150492Y62795
X158563Y69882
X166043Y66142
X187992Y72441
X208169Y78740
X205807Y108366
X191043Y96161
X187618Y122039
X159449Y123327
X251969Y120079
X243504Y75984
X281299Y74508
X276673Y86614
X303248Y92618
X301083Y74902
X301279Y51083
X268011Y25591
X223720Y160335
X173524Y149606
X180708Y220514
X78838Y232972
X54724Y202658
X53740Y168307
X62500Y172835
X54133Y150099
X75098Y154035
X18011Y167815
T03
X202165Y122618
Y132618
Y142618
X123582Y170768
X113582
T04
X32421Y18996
X42421
Y28996
Y38996
Y48996
X32421
Y38996
Y28996
T05
X166789Y206594
X166789Y206594
Y220514
X173749Y213554
X180708Y220514
X180708Y206594
T06
X231201Y182047
X244587
Y235079
X231201
T07
X9843Y8957
X341240Y9350
X397244Y-226772
X342520Y248031
X7874
M30
