%TF.GenerationSoftware,Altium Limited,Altium Designer,19.1.8 (144)*%
G04 Layer_Color=8388736*
%FSLAX25Y25*%
%MOIN*%
%TF.FileFunction,Soldermask,Top*%
%TF.Part,Single*%
G01*
G75*
%TA.AperFunction,SMDPad,CuDef*%
%ADD10R,0.04166X0.04749*%
%ADD11R,0.04749X0.04166*%
%ADD20R,0.06127X0.05924*%
%ADD23R,0.05924X0.06127*%
%ADD26R,0.05118X0.05906*%
%ADD27R,0.09843X0.06693*%
%TA.AperFunction,ComponentPad*%
%ADD35C,0.09646*%
%ADD36R,0.09646X0.09646*%
%TA.AperFunction,ViaPad*%
%ADD47C,0.06800*%
%TA.AperFunction,ComponentPad*%
%ADD48R,0.06706X0.06706*%
%ADD49C,0.06706*%
%ADD50C,0.06902*%
%ADD51R,0.06902X0.06902*%
%ADD52R,0.06706X0.06706*%
%ADD53C,0.07887*%
%TA.AperFunction,ViaPad*%
%ADD54C,0.05800*%
%ADD55C,0.02520*%
%ADD56C,0.07887*%
%TA.AperFunction,SMDPad,CuDef*%
%ADD67O,0.01981X0.09068*%
%ADD68O,0.09068X0.01981*%
%ADD69R,0.04540X0.11036*%
%ADD70R,0.02520X0.01654*%
%ADD71R,0.04095X0.06850*%
%ADD72R,0.13800X0.10300*%
%ADD73R,0.07493X0.03950*%
%ADD74R,0.05721X0.06902*%
%ADD75R,0.05524X0.05524*%
%ADD76R,0.03950X0.03950*%
%ADD77R,0.11430X0.04737*%
%ADD78R,0.09068X0.06312*%
%ADD79R,0.11824X0.06509*%
G04:AMPARAMS|DCode=80|XSize=33.59mil|YSize=72.96mil|CornerRadius=5.92mil|HoleSize=0mil|Usage=FLASHONLY|Rotation=90.000|XOffset=0mil|YOffset=0mil|HoleType=Round|Shape=RoundedRectangle|*
%AMROUNDEDRECTD80*
21,1,0.03359,0.06112,0,0,90.0*
21,1,0.02175,0.07296,0,0,90.0*
1,1,0.01184,0.03056,0.01088*
1,1,0.01184,0.03056,-0.01088*
1,1,0.01184,-0.03056,-0.01088*
1,1,0.01184,-0.03056,0.01088*
%
%ADD80ROUNDEDRECTD80*%
%ADD81R,0.05131X0.07296*%
D10*
X208071Y69780D02*
D03*
Y76283D02*
D03*
X193504Y89169D02*
D03*
Y95673D02*
D03*
X100197Y56795D02*
D03*
Y50291D02*
D03*
X268208Y25878D02*
D03*
Y32382D02*
D03*
X55511Y202272D02*
D03*
Y195768D02*
D03*
D11*
X95961Y112106D02*
D03*
X102464D02*
D03*
X196657Y73327D02*
D03*
X190154D02*
D03*
X161414Y122277D02*
D03*
X167917D02*
D03*
X159346Y38091D02*
D03*
X165850D02*
D03*
X130319Y142028D02*
D03*
X123815D02*
D03*
X205511Y108465D02*
D03*
X199008D02*
D03*
D20*
X88484Y62103D02*
D03*
Y69196D02*
D03*
D23*
X150199Y131791D02*
D03*
X143107D02*
D03*
D26*
X249212Y32480D02*
D03*
X241732D02*
D03*
D27*
X223622Y160335D02*
D03*
X207874D02*
D03*
D35*
X231201Y182047D02*
D03*
Y235079D02*
D03*
X244587Y182047D02*
D03*
D36*
Y235079D02*
D03*
D47*
X342520Y248031D02*
D03*
X397244Y-226772D02*
D03*
X7874Y248031D02*
D03*
X9843Y8957D02*
D03*
X341240Y9350D02*
D03*
D48*
X202165Y122618D02*
D03*
D49*
Y132618D02*
D03*
Y142618D02*
D03*
X113582Y170768D02*
D03*
D50*
X42421Y38996D02*
D03*
Y28996D02*
D03*
Y18996D02*
D03*
X32421Y48996D02*
D03*
Y38996D02*
D03*
Y28996D02*
D03*
Y18996D02*
D03*
D51*
X42421Y48996D02*
D03*
D52*
X123582Y170768D02*
D03*
D53*
X173749Y213554D02*
D03*
X166789Y220514D02*
D03*
X180708D02*
D03*
X166789Y206594D02*
D03*
X180708D02*
D03*
D54*
X187618Y122039D02*
D03*
X301279Y51083D02*
D03*
X251969Y120079D02*
D03*
X103839Y112598D02*
D03*
X101181Y48228D02*
D03*
X113878Y33366D02*
D03*
X208169Y78740D02*
D03*
X191043Y96161D02*
D03*
X173524Y149606D02*
D03*
X159449Y123327D02*
D03*
X276673Y86614D02*
D03*
X157381Y40059D02*
D03*
X56890Y59646D02*
D03*
X88681D02*
D03*
X75098Y154035D02*
D03*
X62500Y172835D02*
D03*
X243504Y75984D02*
D03*
X303248Y92618D02*
D03*
X301083Y74902D02*
D03*
X281299Y74508D02*
D03*
X54133Y150099D02*
D03*
X132972Y82677D02*
D03*
X141633Y62894D02*
D03*
X150492Y62795D02*
D03*
X166043Y66142D02*
D03*
X158563Y69882D02*
D03*
X187992Y72441D02*
D03*
X268011Y25591D02*
D03*
X223720Y160335D02*
D03*
X78838Y232972D02*
D03*
X54724Y202658D02*
D03*
X53740Y168307D02*
D03*
X18011Y167815D02*
D03*
X33563Y120965D02*
D03*
X34842Y74409D02*
D03*
X205807Y108366D02*
D03*
X180708Y220514D02*
D03*
X34940Y97441D02*
D03*
D55*
X237893Y93307D02*
D03*
Y96457D02*
D03*
D56*
X180708Y206594D02*
D03*
X166789D02*
D03*
X180708Y220514D02*
D03*
X166789D02*
D03*
X173749Y213554D02*
D03*
D67*
X169980Y50787D02*
D03*
X168011D02*
D03*
X166043D02*
D03*
X164075D02*
D03*
X162106D02*
D03*
X160137D02*
D03*
X158169D02*
D03*
X156201D02*
D03*
X154232D02*
D03*
X152263D02*
D03*
X150295D02*
D03*
X148327D02*
D03*
X146358D02*
D03*
X144389D02*
D03*
X142421D02*
D03*
X140453D02*
D03*
X138484D02*
D03*
X136515D02*
D03*
X134547D02*
D03*
X132579D02*
D03*
X130610D02*
D03*
X128641D02*
D03*
X126673D02*
D03*
X124705D02*
D03*
X122736D02*
D03*
Y110630D02*
D03*
X124705D02*
D03*
X126673D02*
D03*
X128641D02*
D03*
X130610D02*
D03*
X132579D02*
D03*
X134547D02*
D03*
X136515D02*
D03*
X138484D02*
D03*
X140453D02*
D03*
X142421D02*
D03*
X144389D02*
D03*
X146358D02*
D03*
X148327D02*
D03*
X150295D02*
D03*
X152263D02*
D03*
X154232D02*
D03*
X156201D02*
D03*
X158169D02*
D03*
X160137D02*
D03*
X162106D02*
D03*
X164075D02*
D03*
X166043D02*
D03*
X168011D02*
D03*
X169980D02*
D03*
D68*
X116437Y57086D02*
D03*
Y59055D02*
D03*
Y61023D02*
D03*
Y62992D02*
D03*
Y64960D02*
D03*
Y66929D02*
D03*
Y68897D02*
D03*
Y70866D02*
D03*
Y72834D02*
D03*
Y74803D02*
D03*
Y76771D02*
D03*
Y78740D02*
D03*
Y80709D02*
D03*
Y82677D02*
D03*
Y84646D02*
D03*
Y86614D02*
D03*
Y88583D02*
D03*
Y90551D02*
D03*
Y92520D02*
D03*
Y94488D02*
D03*
Y96457D02*
D03*
Y98425D02*
D03*
Y100394D02*
D03*
Y102362D02*
D03*
Y104331D02*
D03*
X176279D02*
D03*
Y102362D02*
D03*
Y100394D02*
D03*
Y98425D02*
D03*
Y96457D02*
D03*
Y94488D02*
D03*
Y92520D02*
D03*
Y90551D02*
D03*
Y88583D02*
D03*
Y86614D02*
D03*
Y84646D02*
D03*
Y82677D02*
D03*
Y80709D02*
D03*
Y78740D02*
D03*
Y76771D02*
D03*
Y74803D02*
D03*
Y72834D02*
D03*
Y70866D02*
D03*
Y68897D02*
D03*
Y66929D02*
D03*
Y64960D02*
D03*
Y62992D02*
D03*
Y61023D02*
D03*
Y59055D02*
D03*
Y57086D02*
D03*
D69*
X245965Y75689D02*
D03*
X256988D02*
D03*
X238583Y120079D02*
D03*
X249606D02*
D03*
D70*
X234153Y97835D02*
D03*
Y95866D02*
D03*
Y93898D02*
D03*
Y91929D02*
D03*
X241633D02*
D03*
Y93898D02*
D03*
Y95866D02*
D03*
Y97835D02*
D03*
D71*
X237893Y94882D02*
D03*
D72*
X335544Y25595D02*
D03*
Y106295D02*
D03*
D73*
X315945Y39370D02*
D03*
Y45275D02*
D03*
Y51181D02*
D03*
Y57086D02*
D03*
Y62992D02*
D03*
Y68898D02*
D03*
Y74803D02*
D03*
Y80709D02*
D03*
Y86614D02*
D03*
Y92520D02*
D03*
D74*
X67716Y97441D02*
D03*
X59645D02*
D03*
X66535Y120965D02*
D03*
X58464D02*
D03*
X59744Y74311D02*
D03*
X67815D02*
D03*
D75*
X34940Y74508D02*
D03*
X43208D02*
D03*
X34940Y97441D02*
D03*
X43208D02*
D03*
D76*
X34251Y121063D02*
D03*
X40157D02*
D03*
D77*
X261220Y90650D02*
D03*
Y99311D02*
D03*
D78*
X54133Y167815D02*
D03*
Y150099D02*
D03*
X18307D02*
D03*
Y167815D02*
D03*
D79*
X118405Y201181D02*
D03*
Y189173D02*
D03*
D80*
X96555Y192106D02*
D03*
Y197106D02*
D03*
Y202106D02*
D03*
Y207106D02*
D03*
X74311Y192106D02*
D03*
Y197106D02*
D03*
Y202106D02*
D03*
Y207106D02*
D03*
D81*
X90452Y232480D02*
D03*
X79232D02*
D03*
%TF.MD5,44c93638f56e56c8eaa1e2311cf61ee1*%
M02*
