%TF.GenerationSoftware,Altium Limited,Altium Designer,19.1.8 (144)*%
G04 Layer_Physical_Order=2*
G04 Layer_Color=16711680*
%FSLAX25Y25*%
%MOIN*%
%TF.FileFunction,Copper,L2,Bot,Signal*%
%TF.Part,Single*%
G01*
G75*
%TA.AperFunction,Conductor*%
%ADD31C,0.01000*%
%ADD32C,0.01500*%
%ADD33C,0.01968*%
%ADD34C,0.03937*%
%TA.AperFunction,ComponentPad*%
%ADD35C,0.09646*%
%ADD36R,0.09646X0.09646*%
%TA.AperFunction,ViaPad*%
%ADD37C,0.06000*%
%TA.AperFunction,ComponentPad*%
%ADD38R,0.05906X0.05906*%
%ADD39C,0.05906*%
%ADD40C,0.06102*%
%ADD41R,0.06102X0.06102*%
%ADD42R,0.05906X0.05906*%
%ADD43C,0.07087*%
%TA.AperFunction,ViaPad*%
%ADD44C,0.05000*%
%ADD45C,0.01968*%
%ADD46C,0.07087*%
G36*
X156705Y252854D02*
X157058Y252500D01*
X156715Y177362D01*
X49606Y177362D01*
Y178150D01*
X49583D01*
Y239862D01*
X49606D01*
Y252854D01*
X156705Y252854D01*
D02*
G37*
G36*
X228683Y240650D02*
X228783Y240150D01*
X228372Y239979D01*
X227200Y239080D01*
X226300Y237908D01*
X225735Y236543D01*
X225542Y235079D01*
X225735Y233614D01*
X226300Y232249D01*
X227200Y231078D01*
X228372Y230178D01*
X229736Y229613D01*
X231201Y229420D01*
X232665Y229613D01*
X234030Y230178D01*
X235202Y231078D01*
X236101Y232249D01*
X236667Y233614D01*
X236859Y235079D01*
X236667Y236543D01*
X236101Y237908D01*
X235202Y239080D01*
X234030Y239979D01*
X233619Y240150D01*
X233718Y240650D01*
X238976D01*
Y229468D01*
X250197D01*
Y240650D01*
X347890Y240650D01*
X348244Y240296D01*
X348206Y115748D01*
X262598Y115748D01*
Y77447D01*
X255033Y69882D01*
X191070Y69882D01*
X190823Y70382D01*
X191049Y70676D01*
X191402Y71527D01*
X191456Y71941D01*
X184527D01*
X184582Y71527D01*
X184934Y70676D01*
X185160Y70382D01*
X184914Y69882D01*
X181299D01*
Y115748D01*
X178051D01*
X178051Y202609D01*
X178500Y202831D01*
X178524Y202812D01*
X179578Y202375D01*
X180708Y202226D01*
X181839Y202375D01*
X182892Y202812D01*
X183797Y203506D01*
X184491Y204410D01*
X184928Y205464D01*
X185076Y206594D01*
X184928Y207725D01*
X184491Y208779D01*
X183797Y209683D01*
X182892Y210377D01*
X181839Y210814D01*
X180708Y210963D01*
X179578Y210814D01*
X178524Y210377D01*
X178500Y210358D01*
X178051Y210580D01*
Y213057D01*
X178117Y213554D01*
X178051Y214051D01*
Y216258D01*
X178551Y216490D01*
X179522Y216088D01*
X180208Y215997D01*
Y220514D01*
Y225030D01*
X179522Y224940D01*
X178551Y224538D01*
X178051Y224770D01*
Y240650D01*
X228683Y240650D01*
D02*
G37*
%LPC*%
G36*
X79338Y236437D02*
Y233472D01*
X82303D01*
X82248Y233886D01*
X81896Y234737D01*
X81335Y235469D01*
X80603Y236030D01*
X79752Y236382D01*
X79338Y236437D01*
D02*
G37*
G36*
X78338D02*
X77925Y236382D01*
X77073Y236030D01*
X76342Y235469D01*
X75781Y234737D01*
X75428Y233886D01*
X75374Y233472D01*
X78338D01*
Y236437D01*
D02*
G37*
G36*
X82303Y232472D02*
X79338D01*
Y229508D01*
X79752Y229562D01*
X80603Y229915D01*
X81335Y230476D01*
X81896Y231207D01*
X82248Y232059D01*
X82303Y232472D01*
D02*
G37*
G36*
X78338D02*
X75374D01*
X75428Y232059D01*
X75781Y231207D01*
X76342Y230476D01*
X77073Y229915D01*
X77925Y229562D01*
X78338Y229508D01*
Y232472D01*
D02*
G37*
G36*
X55224Y206122D02*
Y203157D01*
X58188D01*
X58134Y203571D01*
X57781Y204423D01*
X57220Y205154D01*
X56489Y205715D01*
X55638Y206067D01*
X55224Y206122D01*
D02*
G37*
G36*
X54224D02*
X53810Y206067D01*
X52959Y205715D01*
X52228Y205154D01*
X51667Y204423D01*
X51314Y203571D01*
X51260Y203157D01*
X54224D01*
Y206122D01*
D02*
G37*
G36*
X58188Y202157D02*
X55224D01*
Y199193D01*
X55638Y199248D01*
X56489Y199600D01*
X57220Y200161D01*
X57781Y200892D01*
X58134Y201744D01*
X58188Y202157D01*
D02*
G37*
G36*
X54224D02*
X51260D01*
X51314Y201744D01*
X51667Y200892D01*
X52228Y200161D01*
X52959Y199600D01*
X53810Y199248D01*
X54224Y199193D01*
Y202157D01*
D02*
G37*
G36*
X181208Y225030D02*
Y221721D01*
X183548Y224061D01*
X183000Y224482D01*
X181894Y224940D01*
X181208Y225030D01*
D02*
G37*
G36*
X184256Y223354D02*
X181915Y221014D01*
X185225D01*
X185135Y221700D01*
X184677Y222805D01*
X184256Y223354D01*
D02*
G37*
G36*
X185225Y220014D02*
X181915D01*
X184256Y217674D01*
X184677Y218223D01*
X185135Y219328D01*
X185225Y220014D01*
D02*
G37*
G36*
X181208Y219307D02*
Y215997D01*
X181894Y216088D01*
X183000Y216545D01*
X183548Y216967D01*
X181208Y219307D01*
D02*
G37*
G36*
X244587Y187706D02*
X243122Y187513D01*
X241757Y186948D01*
X240585Y186048D01*
X239686Y184877D01*
X239121Y183512D01*
X238928Y182047D01*
X239121Y180583D01*
X239686Y179218D01*
X240585Y178046D01*
X241757Y177147D01*
X243122Y176581D01*
X244587Y176389D01*
X246051Y176581D01*
X247416Y177147D01*
X248588Y178046D01*
X249487Y179218D01*
X250052Y180583D01*
X250245Y182047D01*
X250052Y183512D01*
X249487Y184877D01*
X248588Y186048D01*
X247416Y186948D01*
X246051Y187513D01*
X244587Y187706D01*
D02*
G37*
G36*
X231201D02*
X229736Y187513D01*
X228372Y186948D01*
X227200Y186048D01*
X226300Y184877D01*
X225735Y183512D01*
X225542Y182047D01*
X225735Y180583D01*
X226300Y179218D01*
X227200Y178046D01*
X228372Y177147D01*
X229736Y176581D01*
X231201Y176389D01*
X232665Y176581D01*
X234030Y177147D01*
X235202Y178046D01*
X236101Y179218D01*
X236667Y180583D01*
X236859Y182047D01*
X236667Y183512D01*
X236101Y184877D01*
X235202Y186048D01*
X234030Y186948D01*
X232665Y187513D01*
X231201Y187706D01*
D02*
G37*
G36*
X224220Y163799D02*
Y160835D01*
X227185D01*
X227130Y161248D01*
X226777Y162100D01*
X226216Y162831D01*
X225485Y163392D01*
X224634Y163744D01*
X224220Y163799D01*
D02*
G37*
G36*
X223220D02*
X222806Y163744D01*
X221955Y163392D01*
X221224Y162831D01*
X220663Y162100D01*
X220310Y161248D01*
X220256Y160835D01*
X223220D01*
Y163799D01*
D02*
G37*
G36*
X227185Y159835D02*
X224220D01*
Y156870D01*
X224634Y156925D01*
X225485Y157277D01*
X226216Y157838D01*
X226777Y158570D01*
X227130Y159421D01*
X227185Y159835D01*
D02*
G37*
G36*
X223220D02*
X220256D01*
X220310Y159421D01*
X220663Y158570D01*
X221224Y157838D01*
X221955Y157277D01*
X222806Y156925D01*
X223220Y156870D01*
Y159835D01*
D02*
G37*
G36*
X202665Y146539D02*
Y143118D01*
X206086D01*
X206016Y143650D01*
X205618Y144612D01*
X204984Y145437D01*
X204159Y146071D01*
X203197Y146469D01*
X202665Y146539D01*
D02*
G37*
G36*
X201665D02*
X201133Y146469D01*
X200172Y146071D01*
X199346Y145437D01*
X198713Y144612D01*
X198314Y143650D01*
X198244Y143118D01*
X201665D01*
Y146539D01*
D02*
G37*
G36*
Y142118D02*
X198244D01*
X198314Y141586D01*
X198713Y140625D01*
X199346Y139799D01*
X200172Y139165D01*
X201133Y138767D01*
X201665Y138697D01*
Y142118D01*
D02*
G37*
G36*
X206086D02*
X202665D01*
Y138697D01*
X203197Y138767D01*
X204159Y139165D01*
X204984Y139799D01*
X205618Y140625D01*
X206016Y141586D01*
X206086Y142118D01*
D02*
G37*
G36*
X202165Y136390D02*
X201189Y136262D01*
X200279Y135885D01*
X199498Y135286D01*
X198898Y134504D01*
X198521Y133595D01*
X198393Y132618D01*
X198521Y131642D01*
X198898Y130732D01*
X199498Y129951D01*
X200279Y129351D01*
X201189Y128974D01*
X202165Y128846D01*
X203142Y128974D01*
X204052Y129351D01*
X204833Y129951D01*
X205432Y130732D01*
X205809Y131642D01*
X205938Y132618D01*
X205809Y133595D01*
X205432Y134504D01*
X204833Y135286D01*
X204052Y135885D01*
X203142Y136262D01*
X202165Y136390D01*
D02*
G37*
G36*
X188118Y125504D02*
Y122539D01*
X191082D01*
X191028Y122953D01*
X190675Y123804D01*
X190114Y124536D01*
X189383Y125097D01*
X188532Y125449D01*
X188118Y125504D01*
D02*
G37*
G36*
X187118D02*
X186704Y125449D01*
X185853Y125097D01*
X185122Y124536D01*
X184561Y123804D01*
X184208Y122953D01*
X184153Y122539D01*
X187118D01*
Y125504D01*
D02*
G37*
G36*
X252468Y123543D02*
Y120579D01*
X255433D01*
X255378Y120992D01*
X255026Y121844D01*
X254465Y122575D01*
X253734Y123136D01*
X252882Y123489D01*
X252468Y123543D01*
D02*
G37*
G36*
X251468D02*
X251055Y123489D01*
X250203Y123136D01*
X249472Y122575D01*
X248911Y121844D01*
X248559Y120992D01*
X248504Y120579D01*
X251468D01*
Y123543D01*
D02*
G37*
G36*
X205906Y126358D02*
X198425D01*
Y118878D01*
X205906D01*
Y126358D01*
D02*
G37*
G36*
X191082Y121539D02*
X188118D01*
Y118575D01*
X188532Y118630D01*
X189383Y118982D01*
X190114Y119543D01*
X190675Y120274D01*
X191028Y121126D01*
X191082Y121539D01*
D02*
G37*
G36*
X187118D02*
X184153D01*
X184208Y121126D01*
X184561Y120274D01*
X185122Y119543D01*
X185853Y118982D01*
X186704Y118630D01*
X187118Y118575D01*
Y121539D01*
D02*
G37*
G36*
X255433Y119579D02*
X252468D01*
Y116614D01*
X252882Y116669D01*
X253734Y117022D01*
X254465Y117582D01*
X255026Y118314D01*
X255378Y119165D01*
X255433Y119579D01*
D02*
G37*
G36*
X251468D02*
X248504D01*
X248559Y119165D01*
X248911Y118314D01*
X249472Y117582D01*
X250203Y117022D01*
X251055Y116669D01*
X251468Y116614D01*
Y119579D01*
D02*
G37*
G36*
X206307Y111830D02*
Y108866D01*
X209271D01*
X209217Y109280D01*
X208864Y110131D01*
X208303Y110862D01*
X207572Y111423D01*
X206720Y111776D01*
X206307Y111830D01*
D02*
G37*
G36*
X205307D02*
X204893Y111776D01*
X204042Y111423D01*
X203310Y110862D01*
X202749Y110131D01*
X202397Y109280D01*
X202342Y108866D01*
X205307D01*
Y111830D01*
D02*
G37*
G36*
X209271Y107866D02*
X206307D01*
Y104902D01*
X206720Y104956D01*
X207572Y105309D01*
X208303Y105870D01*
X208864Y106601D01*
X209217Y107452D01*
X209271Y107866D01*
D02*
G37*
G36*
X205307D02*
X202342D01*
X202397Y107452D01*
X202749Y106601D01*
X203310Y105870D01*
X204042Y105309D01*
X204893Y104956D01*
X205307Y104902D01*
Y107866D01*
D02*
G37*
G36*
X238393Y98380D02*
Y96957D01*
X239817D01*
X239763Y97231D01*
X239324Y97887D01*
X238668Y98326D01*
X238393Y98380D01*
D02*
G37*
G36*
X237393D02*
X237119Y98326D01*
X236463Y97887D01*
X236024Y97231D01*
X235970Y96957D01*
X237393D01*
Y98380D01*
D02*
G37*
G36*
X191543Y99626D02*
Y96661D01*
X194508D01*
X194453Y97075D01*
X194100Y97926D01*
X193540Y98658D01*
X192808Y99219D01*
X191957Y99571D01*
X191543Y99626D01*
D02*
G37*
G36*
X190543D02*
X190130Y99571D01*
X189278Y99219D01*
X188547Y98658D01*
X187986Y97926D01*
X187633Y97075D01*
X187579Y96661D01*
X190543D01*
Y99626D01*
D02*
G37*
G36*
X239817Y95957D02*
X235970D01*
X236024Y95683D01*
X236318Y95242D01*
X236422Y94882D01*
X236318Y94521D01*
X236024Y94081D01*
X235970Y93807D01*
X239817D01*
X239763Y94081D01*
X239469Y94521D01*
X239365Y94882D01*
X239469Y95242D01*
X239763Y95683D01*
X239817Y95957D01*
D02*
G37*
G36*
X194508Y95661D02*
X191543D01*
Y92697D01*
X191957Y92751D01*
X192808Y93104D01*
X193540Y93665D01*
X194100Y94396D01*
X194453Y95248D01*
X194508Y95661D01*
D02*
G37*
G36*
X190543D02*
X187579D01*
X187633Y95248D01*
X187986Y94396D01*
X188547Y93665D01*
X189278Y93104D01*
X190130Y92751D01*
X190543Y92697D01*
Y95661D01*
D02*
G37*
G36*
X239817Y92807D02*
X238393D01*
Y91383D01*
X238668Y91438D01*
X239324Y91877D01*
X239763Y92533D01*
X239817Y92807D01*
D02*
G37*
G36*
X237393D02*
X235970D01*
X236024Y92533D01*
X236463Y91877D01*
X237119Y91438D01*
X237393Y91383D01*
Y92807D01*
D02*
G37*
G36*
X208669Y82205D02*
Y79240D01*
X211634D01*
X211579Y79654D01*
X211227Y80505D01*
X210665Y81236D01*
X209934Y81797D01*
X209083Y82150D01*
X208669Y82205D01*
D02*
G37*
G36*
X207669D02*
X207256Y82150D01*
X206404Y81797D01*
X205673Y81236D01*
X205112Y80505D01*
X204759Y79654D01*
X204705Y79240D01*
X207669D01*
Y82205D01*
D02*
G37*
G36*
X244004Y79449D02*
Y76484D01*
X246968D01*
X246914Y76898D01*
X246561Y77749D01*
X246000Y78480D01*
X245269Y79041D01*
X244418Y79394D01*
X244004Y79449D01*
D02*
G37*
G36*
X243004D02*
X242590Y79394D01*
X241739Y79041D01*
X241008Y78480D01*
X240447Y77749D01*
X240094Y76898D01*
X240040Y76484D01*
X243004D01*
Y79449D01*
D02*
G37*
G36*
X211634Y78240D02*
X208669D01*
Y75276D01*
X209083Y75330D01*
X209934Y75683D01*
X210665Y76244D01*
X211227Y76975D01*
X211579Y77826D01*
X211634Y78240D01*
D02*
G37*
G36*
X207669D02*
X204705D01*
X204759Y77826D01*
X205112Y76975D01*
X205673Y76244D01*
X206404Y75683D01*
X207256Y75330D01*
X207669Y75276D01*
Y78240D01*
D02*
G37*
G36*
X188492Y75905D02*
Y72941D01*
X191456D01*
X191402Y73355D01*
X191049Y74206D01*
X190488Y74937D01*
X189757Y75498D01*
X188906Y75851D01*
X188492Y75905D01*
D02*
G37*
G36*
X187492D02*
X187078Y75851D01*
X186227Y75498D01*
X185496Y74937D01*
X184934Y74206D01*
X184582Y73355D01*
X184527Y72941D01*
X187492D01*
Y75905D01*
D02*
G37*
G36*
X246968Y75484D02*
X244004D01*
Y72520D01*
X244418Y72574D01*
X245269Y72927D01*
X246000Y73488D01*
X246561Y74219D01*
X246914Y75071D01*
X246968Y75484D01*
D02*
G37*
G36*
X243004D02*
X240040D01*
X240094Y75071D01*
X240447Y74219D01*
X241008Y73488D01*
X241739Y72927D01*
X242590Y72574D01*
X243004Y72520D01*
Y75484D01*
D02*
G37*
%LPD*%
D31*
X274803Y25591D02*
X300787Y51575D01*
X188780Y94587D02*
X205315D01*
X201968Y143760D02*
X218366D01*
X113582Y25394D02*
X113681Y25492D01*
X232775Y160335D02*
X251969Y141141D01*
Y120079D02*
Y141141D01*
X268011Y25591D02*
X274803D01*
X157381Y29134D02*
X160728Y25787D01*
X101927Y45317D02*
Y47483D01*
X101181Y48228D02*
X101927Y47483D01*
Y45317D02*
X113878Y33366D01*
X273622Y86614D02*
X276673D01*
X255020Y68012D02*
X273622Y86614D01*
X176265Y68012D02*
X255020D01*
X174348Y69929D02*
X176265Y68012D01*
X166043Y66142D02*
X262598D01*
X289173Y92716D01*
X205216Y81201D02*
Y93307D01*
X188090Y93897D02*
X188780Y94587D01*
X190354Y96161D01*
X191043D01*
X188090Y72539D02*
Y93897D01*
X159449Y135531D02*
X173524Y149606D01*
X159449Y123327D02*
Y135531D01*
X205315Y93307D02*
X237893D01*
X88238Y59596D02*
X88287Y59646D01*
X88681D01*
X75098Y153051D02*
Y154035D01*
Y153051D02*
X141633Y86516D01*
X62500Y172835D02*
X64764D01*
X150492Y87107D01*
X289173Y92716D02*
X303150D01*
X303248Y92618D01*
X150492Y62795D02*
Y87107D01*
X205118Y81102D02*
X205216Y81201D01*
X74311Y202067D02*
X78838Y206594D01*
Y232972D01*
X141633Y62894D02*
Y86516D01*
X223720Y149114D02*
Y160335D01*
Y126279D02*
Y149114D01*
X218366Y143760D02*
X223720Y149114D01*
X65551Y150099D02*
X132972Y82677D01*
X54133Y150099D02*
X65551D01*
X158610Y69929D02*
X174348D01*
X158563Y69882D02*
X158610Y69929D01*
X187992Y72441D02*
X188090Y72539D01*
X223720Y160335D02*
X232775D01*
X157381Y29134D02*
Y40059D01*
X198917Y25689D02*
X198966Y25640D01*
X267962D02*
X268011Y25591D01*
X198917Y25689D02*
X204527D01*
X205315Y93307D02*
Y94587D01*
X205807Y108366D02*
X223720Y126279D01*
X223425Y160630D02*
X223720Y160335D01*
X223425Y160630D02*
Y177797D01*
X53740Y168307D02*
X54232Y168799D01*
Y202165D02*
X54724Y202658D01*
X74015Y202362D02*
X74311Y202067D01*
X53494Y168061D02*
X53740Y168307D01*
X18011Y167815D02*
X18258Y168061D01*
X34252Y98130D02*
X34940Y97441D01*
X33563Y120965D02*
X34252Y120276D01*
X34842Y74409D02*
X34891Y74459D01*
Y97392D02*
X34940Y97441D01*
X205315Y94587D02*
X205561Y94833D01*
Y108120D01*
X205807Y108366D01*
D32*
X281299Y74508D02*
X281496Y74705D01*
X300886D01*
X301083Y74902D01*
D33*
X106791Y18602D02*
X113582Y25394D01*
X42421Y18602D02*
X106791Y18602D01*
X88681Y50295D02*
X113582Y25394D01*
X88681Y50295D02*
Y59646D01*
X198966Y25640D02*
X267962D01*
X113582Y25689D02*
X160728D01*
X198917Y25689D01*
X49606Y59646D02*
X56890D01*
X34842Y74409D02*
X49606Y59646D01*
X56939Y59596D02*
X88238D01*
X54232Y168799D02*
Y202165D01*
X18011Y167815D02*
X33563Y152264D01*
Y120965D02*
Y152264D01*
X18258Y168061D02*
X53494D01*
X34252Y98130D02*
Y120276D01*
X34891Y74459D02*
Y97392D01*
D34*
X180708Y220514D02*
X223425Y177797D01*
X78838Y232972D02*
X168250D01*
X180708Y220514D01*
D35*
X231201Y182047D02*
D03*
Y235079D02*
D03*
X244587Y182047D02*
D03*
D36*
Y235079D02*
D03*
D37*
X342520Y248031D02*
D03*
X397244Y-226772D02*
D03*
X7874Y248031D02*
D03*
X9843Y8957D02*
D03*
X341240Y9350D02*
D03*
D38*
X202165Y122618D02*
D03*
D39*
Y132618D02*
D03*
Y142618D02*
D03*
X113582Y170768D02*
D03*
D40*
X42421Y38996D02*
D03*
Y28996D02*
D03*
Y18996D02*
D03*
X32421Y48996D02*
D03*
Y38996D02*
D03*
Y28996D02*
D03*
Y18996D02*
D03*
D41*
X42421Y48996D02*
D03*
D42*
X123582Y170768D02*
D03*
D43*
X173749Y213554D02*
D03*
X166789Y220514D02*
D03*
X180708D02*
D03*
X166789Y206594D02*
D03*
X180708D02*
D03*
D44*
X187618Y122039D02*
D03*
X301279Y51083D02*
D03*
X251969Y120079D02*
D03*
X103839Y112598D02*
D03*
X101181Y48228D02*
D03*
X113878Y33366D02*
D03*
X208169Y78740D02*
D03*
X191043Y96161D02*
D03*
X173524Y149606D02*
D03*
X159449Y123327D02*
D03*
X276673Y86614D02*
D03*
X157381Y40059D02*
D03*
X56890Y59646D02*
D03*
X88681D02*
D03*
X75098Y154035D02*
D03*
X62500Y172835D02*
D03*
X243504Y75984D02*
D03*
X303248Y92618D02*
D03*
X301083Y74902D02*
D03*
X281299Y74508D02*
D03*
X54133Y150099D02*
D03*
X132972Y82677D02*
D03*
X141633Y62894D02*
D03*
X150492Y62795D02*
D03*
X166043Y66142D02*
D03*
X158563Y69882D02*
D03*
X187992Y72441D02*
D03*
X268011Y25591D02*
D03*
X223720Y160335D02*
D03*
X78838Y232972D02*
D03*
X54724Y202658D02*
D03*
X53740Y168307D02*
D03*
X18011Y167815D02*
D03*
X33563Y120965D02*
D03*
X34842Y74409D02*
D03*
X205807Y108366D02*
D03*
X180708Y220514D02*
D03*
X34940Y97441D02*
D03*
D45*
X237893Y93307D02*
D03*
Y96457D02*
D03*
D46*
X180708Y206594D02*
D03*
X166789D02*
D03*
X180708Y220514D02*
D03*
X166789D02*
D03*
X173749Y213554D02*
D03*
%TF.MD5,0f68d309c634d1632caa5ede8a5dcef2*%
M02*
