%TF.GenerationSoftware,Altium Limited,Altium Designer,19.1.8 (144)*%
G04 Layer_Color=255*
%FSLAX25Y25*%
%MOIN*%
%TF.FileFunction,Pads,Top*%
%TF.Part,Single*%
G01*
G75*
%TA.AperFunction,SMDPad,CuDef*%
%ADD10R,0.04166X0.04749*%
%ADD11R,0.04749X0.04166*%
%ADD12O,0.01181X0.08268*%
%ADD13O,0.08268X0.01181*%
%ADD14R,0.03740X0.10236*%
%ADD15R,0.01968X0.01102*%
%ADD16R,0.03543X0.06299*%
%ADD17R,0.13000X0.09500*%
%ADD18R,0.06693X0.03150*%
%ADD19R,0.04921X0.06102*%
%ADD20R,0.06127X0.05924*%
%ADD21R,0.04724X0.04724*%
%ADD22R,0.03150X0.03150*%
%ADD23R,0.05924X0.06127*%
%ADD24R,0.10630X0.03937*%
%ADD25R,0.08268X0.05512*%
%ADD26R,0.05118X0.05906*%
%ADD27R,0.09843X0.06693*%
%ADD28R,0.11024X0.05709*%
G04:AMPARAMS|DCode=29|XSize=25.59mil|YSize=64.96mil|CornerRadius=1.92mil|HoleSize=0mil|Usage=FLASHONLY|Rotation=90.000|XOffset=0mil|YOffset=0mil|HoleType=Round|Shape=RoundedRectangle|*
%AMROUNDEDRECTD29*
21,1,0.02559,0.06112,0,0,90.0*
21,1,0.02175,0.06496,0,0,90.0*
1,1,0.00384,0.03056,0.01088*
1,1,0.00384,0.03056,-0.01088*
1,1,0.00384,-0.03056,-0.01088*
1,1,0.00384,-0.03056,0.01088*
%
%ADD29ROUNDEDRECTD29*%
%ADD30R,0.04331X0.06496*%
%TA.AperFunction,ComponentPad*%
%ADD35C,0.09646*%
%ADD36R,0.09646X0.09646*%
%TA.AperFunction,ViaPad*%
%ADD37C,0.06000*%
%TA.AperFunction,ComponentPad*%
%ADD38R,0.05906X0.05906*%
%ADD39C,0.05906*%
%ADD40C,0.06102*%
%ADD41R,0.06102X0.06102*%
%ADD42R,0.05906X0.05906*%
%ADD43C,0.07087*%
D10*
X208071Y69780D02*
D03*
Y76283D02*
D03*
X193504Y89169D02*
D03*
Y95673D02*
D03*
X100197Y56795D02*
D03*
Y50291D02*
D03*
X268208Y25878D02*
D03*
Y32382D02*
D03*
X55511Y202272D02*
D03*
Y195768D02*
D03*
D11*
X95961Y112106D02*
D03*
X102464D02*
D03*
X196657Y73327D02*
D03*
X190154D02*
D03*
X161414Y122277D02*
D03*
X167917D02*
D03*
X159346Y38091D02*
D03*
X165850D02*
D03*
X130319Y142028D02*
D03*
X123815D02*
D03*
X205511Y108465D02*
D03*
X199008D02*
D03*
D12*
X169980Y50787D02*
D03*
X168011D02*
D03*
X166043D02*
D03*
X164075D02*
D03*
X162106D02*
D03*
X160137D02*
D03*
X158169D02*
D03*
X156201D02*
D03*
X154232D02*
D03*
X152263D02*
D03*
X150295D02*
D03*
X148327D02*
D03*
X146358D02*
D03*
X144389D02*
D03*
X142421D02*
D03*
X140453D02*
D03*
X138484D02*
D03*
X136515D02*
D03*
X134547D02*
D03*
X132579D02*
D03*
X130610D02*
D03*
X128641D02*
D03*
X126673D02*
D03*
X124705D02*
D03*
X122736D02*
D03*
Y110630D02*
D03*
X124705D02*
D03*
X126673D02*
D03*
X128641D02*
D03*
X130610D02*
D03*
X132579D02*
D03*
X134547D02*
D03*
X136515D02*
D03*
X138484D02*
D03*
X140453D02*
D03*
X142421D02*
D03*
X144389D02*
D03*
X146358D02*
D03*
X148327D02*
D03*
X150295D02*
D03*
X152263D02*
D03*
X154232D02*
D03*
X156201D02*
D03*
X158169D02*
D03*
X160137D02*
D03*
X162106D02*
D03*
X164075D02*
D03*
X166043D02*
D03*
X168011D02*
D03*
X169980D02*
D03*
D13*
X116437Y57086D02*
D03*
Y59055D02*
D03*
Y61023D02*
D03*
Y62992D02*
D03*
Y64960D02*
D03*
Y66929D02*
D03*
Y68897D02*
D03*
Y70866D02*
D03*
Y72834D02*
D03*
Y74803D02*
D03*
Y76771D02*
D03*
Y78740D02*
D03*
Y80709D02*
D03*
Y82677D02*
D03*
Y84646D02*
D03*
Y86614D02*
D03*
Y88583D02*
D03*
Y90551D02*
D03*
Y92520D02*
D03*
Y94488D02*
D03*
Y96457D02*
D03*
Y98425D02*
D03*
Y100394D02*
D03*
Y102362D02*
D03*
Y104331D02*
D03*
X176279D02*
D03*
Y102362D02*
D03*
Y100394D02*
D03*
Y98425D02*
D03*
Y96457D02*
D03*
Y94488D02*
D03*
Y92520D02*
D03*
Y90551D02*
D03*
Y88583D02*
D03*
Y86614D02*
D03*
Y84646D02*
D03*
Y82677D02*
D03*
Y80709D02*
D03*
Y78740D02*
D03*
Y76771D02*
D03*
Y74803D02*
D03*
Y72834D02*
D03*
Y70866D02*
D03*
Y68897D02*
D03*
Y66929D02*
D03*
Y64960D02*
D03*
Y62992D02*
D03*
Y61023D02*
D03*
Y59055D02*
D03*
Y57086D02*
D03*
D14*
X245965Y75689D02*
D03*
X256988D02*
D03*
X238583Y120079D02*
D03*
X249606D02*
D03*
D15*
X234153Y97835D02*
D03*
Y95866D02*
D03*
Y93898D02*
D03*
Y91929D02*
D03*
X241633D02*
D03*
Y93898D02*
D03*
Y95866D02*
D03*
Y97835D02*
D03*
D16*
X237893Y94882D02*
D03*
D17*
X335544Y25595D02*
D03*
Y106295D02*
D03*
D18*
X315945Y39370D02*
D03*
Y45275D02*
D03*
Y51181D02*
D03*
Y57086D02*
D03*
Y62992D02*
D03*
Y68898D02*
D03*
Y74803D02*
D03*
Y80709D02*
D03*
Y86614D02*
D03*
Y92520D02*
D03*
D19*
X67716Y97441D02*
D03*
X59645D02*
D03*
X66535Y120965D02*
D03*
X58464D02*
D03*
X59744Y74311D02*
D03*
X67815D02*
D03*
D20*
X88484Y62103D02*
D03*
Y69196D02*
D03*
D21*
X34940Y74508D02*
D03*
X43208D02*
D03*
X34940Y97441D02*
D03*
X43208D02*
D03*
D22*
X34251Y121063D02*
D03*
X40157D02*
D03*
D23*
X150199Y131791D02*
D03*
X143107D02*
D03*
D24*
X261220Y90650D02*
D03*
Y99311D02*
D03*
D25*
X54133Y167815D02*
D03*
Y150099D02*
D03*
X18307D02*
D03*
Y167815D02*
D03*
D26*
X249212Y32480D02*
D03*
X241732D02*
D03*
D27*
X223622Y160335D02*
D03*
X207874D02*
D03*
D28*
X118405Y201181D02*
D03*
Y189173D02*
D03*
D29*
X96555Y192106D02*
D03*
Y197106D02*
D03*
Y202106D02*
D03*
Y207106D02*
D03*
X74311Y192106D02*
D03*
Y197106D02*
D03*
Y202106D02*
D03*
Y207106D02*
D03*
D30*
X90452Y232480D02*
D03*
X79232D02*
D03*
D35*
X231201Y182047D02*
D03*
Y235079D02*
D03*
X244587Y182047D02*
D03*
D36*
Y235079D02*
D03*
D37*
X342520Y248031D02*
D03*
X397244Y-226772D02*
D03*
X7874Y248031D02*
D03*
X9843Y8957D02*
D03*
X341240Y9350D02*
D03*
D38*
X202165Y122618D02*
D03*
D39*
Y132618D02*
D03*
Y142618D02*
D03*
X113582Y170768D02*
D03*
D40*
X42421Y38996D02*
D03*
Y28996D02*
D03*
Y18996D02*
D03*
X32421Y48996D02*
D03*
Y38996D02*
D03*
Y28996D02*
D03*
Y18996D02*
D03*
D41*
X42421Y48996D02*
D03*
D42*
X123582Y170768D02*
D03*
D43*
X173749Y213554D02*
D03*
X166789Y220514D02*
D03*
X180708D02*
D03*
X166789Y206594D02*
D03*
X180708D02*
D03*
%TF.MD5,e48bd18ee0e59cd15679eed478b401bd*%
M02*
